<svg width="186" height="225" viewBox="0 0 186 225" fill="none" xmlns="http://www.w3.org/2000/svg">
<rect x="0.5" y="0.5" width="185" height="224" fill="white" stroke="#D2D2D2"/>
<rect x="17" y="13" width="50" height="60" rx="4" fill="#A58CA2"/>
<ellipse cx="43" cy="75" rx="21" ry="24" fill="white"/>
<circle cx="42" cy="39" r="15" fill="white"/>
<rect x="90" y="22" width="83" height="7" fill="#A58CA2"/>
<rect x="90" y="44" width="83" height="7" fill="#A58CA2"/>
<rect x="90" y="66" width="83" height="7" fill="#A58CA2"/>
<circle cx="21.5" cy="102.5" r="4.5" fill="#A58CA2"/>
<circle cx="21.5" cy="117.5" r="4.5" fill="#A58CA2"/>
<circle cx="21.5" cy="132.5" r="4.5" fill="#A58CA2"/>
<rect x="29" y="101" width="43" height="3" fill="#A58CA2"/>
<rect x="29" y="116" width="43" height="3" fill="#A58CA2"/>
<rect x="29" y="131" width="43" height="3" fill="#A58CA2"/>
<rect x="94" y="102" width="75" height="103" fill="white" stroke="#A58CA2" stroke-width="8"/>
<rect x="17" y="149" width="55" height="2" fill="#A58CA2"/>
<rect x="17" y="167" width="55" height="2" fill="#A58CA2"/>
<rect x="17" y="155" width="55" height="2" fill="#A58CA2"/>
<rect x="17" y="173" width="55" height="2" fill="#A58CA2"/>
<rect x="17" y="161" width="55" height="2" fill="#A58CA2"/>
<rect x="17" y="179" width="55" height="2" fill="#A58CA2"/>
<rect x="17" y="202" width="55" height="7" fill="#A58CA2"/>
</svg>
