<svg width="230" height="230" viewBox="0 0 230 230" fill="none" xmlns="http://www.w3.org/2000/svg">
<rect width="230" height="230" fill="#2B933C"/>
<path d="M64.5 229.5L36 191L60 135L173 133L229.5 183.5V229.5H64.5Z" fill="#187827"/>
<path d="M109.418 134.806V192.184C108.138 192.184 106.858 195.204 100.456 192.788C99.1268 192.287 95.3346 188.359 95.3346 187.352H39L58.8451 134.806C104.937 111.613 110.058 125.142 109.418 134.806Z" stroke="#D9D9D9" stroke-width="6"/>
<path d="M119.582 134.806V192.184C120.862 192.184 122.142 195.204 128.544 192.788C129.873 192.287 133.665 188.359 133.665 187.352H190L170.155 134.806C124.063 111.613 118.942 125.142 119.582 134.806Z" stroke="#D9D9D9" stroke-width="6"/>
<path d="M52.8416 179.883L63.933 133.89C99.4258 114.55 109.077 123.08 109.467 129.763L108.92 173.921C109.07 174.809 109.063 175.81 108.883 176.935L108.92 173.921C106.739 161.031 71.4105 172.16 52.8416 179.883Z" fill="#D9D9D9" stroke="#D9D9D9"/>
<path d="M176.158 179.883L165.067 134.89C129.574 115.97 119.923 124.315 119.533 130.852L120.08 174.05C119.93 174.919 119.937 175.899 120.117 176.999L120.08 174.05C122.261 161.44 157.59 172.328 176.158 179.883Z" fill="#D9D9D9" stroke="#D9D9D9"/>
<path d="M113.909 29L170.819 54.3366L113.909 74.6134V52.9439V29Z" fill="#D9D9D9"/>
<path d="M113.909 29L57 54.3366L113.909 74.6134V52.9439V29Z" fill="#D9D9D9"/>
<path d="M69.2573 64.0212L113.937 79.7807L157.686 64.0212V85.0788C135.453 89.4324 126.918 92.6993 113.937 100.793C95.6168 89.4732 84.3998 87.6036 69.2573 85.0788V64.0212Z" fill="#D9D9D9"/>
<rect x="162.939" y="61.3946" width="3.50212" height="32.3946" fill="#EDD500"/>
<circle cx="164.69" cy="96.4158" r="3.50212" fill="#EDD500"/>
<path d="M163.263 98.6908C163.263 98.6908 164.903 97.5119 165.89 98.6908C166.876 99.8696 168.079 103.42 168.516 105.171C168.954 106.922 170.166 112.331 172.456 114.802C168.753 112.826 164.203 109.954 160.493 112.051C159.717 102.665 161.596 99.8762 163.263 98.6908Z" fill="#EDD500"/>
</svg>
