<svg width="186" height="226" viewBox="0 0 186 226" fill="none" xmlns="http://www.w3.org/2000/svg">
<rect y="0.800003" width="186" height="225" fill="#010032"/>
<mask id="mask0_174_122" style="mask-type:alpha" maskUnits="userSpaceOnUse" x="17" y="13" width="156" height="197">
<mask id="mask1_174_122" style="mask-type:alpha" maskUnits="userSpaceOnUse" x="0" y="0" width="186" height="226">
<rect x="0.5" y="1.3" width="185" height="224" fill="white" stroke="#D2D2D2"/>
</mask>
<g mask="url(#mask1_174_122)">
<rect x="17" y="13.8" width="50" height="60" rx="4" fill="#A58CA2"/>
<rect x="90" y="22.8" width="83" height="7" fill="#A58CA2"/>
<rect x="90" y="44.8" width="83" height="7" fill="#A58CA2"/>
<rect x="90" y="66.8" width="83" height="7" fill="#A58CA2"/>
<circle cx="21.5" cy="103.3" r="4.5" fill="#A58CA2"/>
<circle cx="21.5" cy="118.3" r="4.5" fill="#A58CA2"/>
<circle cx="21.5" cy="133.3" r="4.5" fill="#A58CA2"/>
<rect x="29" y="101.8" width="43" height="3" fill="#A58CA2"/>
<rect x="29" y="116.8" width="43" height="3" fill="#A58CA2"/>
<rect x="29" y="131.8" width="43" height="3" fill="#A58CA2"/>
<rect x="94" y="102.8" width="75" height="103" fill="white" stroke="#A58CA2" stroke-width="8"/>
<rect x="17" y="149.8" width="55" height="2" fill="#A58CA2"/>
<rect x="17" y="167.8" width="55" height="2" fill="#A58CA2"/>
<rect x="17" y="155.8" width="55" height="2" fill="#A58CA2"/>
<rect x="17" y="173.8" width="55" height="2" fill="#A58CA2"/>
<rect x="17" y="161.8" width="55" height="2" fill="#A58CA2"/>
<rect x="17" y="179.8" width="55" height="2" fill="#A58CA2"/>
<rect x="17" y="202.8" width="55" height="7" fill="#A58CA2"/>
</g>
</mask>
<g mask="url(#mask0_174_122)">
<rect y="1" width="186" height="225" fill="url(#paint0_linear_174_122)"/>
</g>
<path d="M63 74H43H22C22 60.7452 31.402 51.8 43 51.8C54.598 51.8 63 60.7452 63 74Z" fill="#010032"/>
<circle cx="42" cy="39.8" r="15" fill="#010032"/>
<defs>
<linearGradient id="paint0_linear_174_122" x1="93" y1="1" x2="93" y2="226" gradientUnits="userSpaceOnUse">
<stop stop-color="#FFE500"/>
<stop offset="0.94" stop-color="#CD06B9"/>
</linearGradient>
</defs>
</svg>
